<?xml version="1.0" encoding="utf-8"?>
<!-- Generator: Adobe Illustrator 15.0.2, SVG Export Plug-In . SVG Version: 6.00 Build 0)  -->
<!DOCTYPE svg PUBLIC "-//W3C//DTD SVG 1.1//EN" "http://www.w3.org/Graphics/SVG/1.1/DTD/svg11.dtd">
<svg version="1.1" id="Layer_1" xmlns="http://www.w3.org/2000/svg" xmlns:xlink="http://www.w3.org/1999/xlink" x="0px" y="0px"
	 width="841.89px" height="177.934px" viewBox="0 0 841.89 177.934" enable-background="new 0 0 841.89 177.934"
	 xml:space="preserve">
<path fill="#454443" d="M503.2,118.846h-0.241c-5.741,7.232-11.467,11.353-20.696,11.353c-11.575,0-19.806-6.491-19.806-18.318
	c0-21.2,23.67-22.815,39.38-22.815h5.85c0.499-1.749,0.499-3.616,0.499-5.483c0-6.477-6.98-8.35-12.836-8.35
	c-7.351,0-14.45,1.873-21.065,4.99l2.376-13.339c7.1-2.49,14.322-3.854,21.812-3.854c12.835,0,24.92,4.724,24.92,19.807
	c0,8.601-6.359,33.777-7.855,45.861h-14.08L503.2,118.846 M486.883,117.981c12.459,0,16.317-8.601,18.941-18.946h-5.865
	c-8.097,0-21.555,1.379-21.555,12.213C478.404,115.734,482.634,117.981,486.883,117.981"/>
<path fill="#454443" d="M70.276,64.462H82.38l2.863-13.216l17.943-5.854l-4.11,19.07h14.95l-2.611,12.208H96.456l-6.104,28.047
	c-0.373,1.492-0.75,3.735-0.75,6.225c0,3.869,2.616,6.235,6.358,6.235c2.992,0,5.98-0.623,8.095-1.502l-2.858,12.969
	c-2.871,0.617-6.104,1.497-8.979,1.497c-11.343,0-19.314-4.491-19.314-16.827c0-4.985,1-9.847,2.119-14.955l4.735-21.688H67.67
	L70.276,64.462z"/>
<path fill="#454443" d="M120.886,64.462h16.704l-13.71,64.176h-16.703L120.886,64.462z M126.998,36.795h16.696l-3.495,15.948
	h-16.696L126.998,36.795z"/>
<path fill="#454443" d="M188.024,79.165c-3.249-2.125-7.606-3.241-12.215-3.241c-13.339,0-20.819,12.46-20.819,24.554
	c0,8.345,2.74,16.694,14.207,16.694c4.113,0,9.226-1.122,13.579-3.241l-1.86,13.226c-5.106,2.48-10.597,2.974-16.071,2.974
	c-16.578,0-27.306-11.081-27.306-27.656c0-22.434,14.836-39.508,37.893-39.508c6.228,0,12.215,1.122,16.696,2.495L188.024,79.165z"
	/>
<polygon fill="#454443" points="206.331,35.17 223.029,35.17 211.936,87.761 212.195,87.761 235.499,64.462 257.183,64.462 
	226.398,93.749 245.713,128.638 226.895,128.638 210.317,94.618 210.063,94.618 202.838,128.638 186.517,128.638 "/>
<path fill="#454443" d="M317.381,64.462h12.087l2.873-13.216l17.939-5.854l-4.111,19.07h14.955l-2.616,12.208h-14.959l-6.099,28.047
	c-0.383,1.492-0.756,3.735-0.756,6.225c0,3.869,2.616,6.235,6.366,6.235c2.981,0,5.978-0.623,8.097-1.502l-2.877,12.969
	c-2.858,0.617-6.106,1.497-8.969,1.497c-11.336,0-19.317-4.491-19.317-16.827c0-4.985,0.996-9.847,2.125-14.955l4.735-21.688
	h-12.096L317.381,64.462z"/>
<path fill="#454443" d="M311.796,87.39c0-16.323-10.471-24.42-26.298-24.42c-21.059,0-36.517,19.189-36.517,39.124
	c0,19.069,12.457,28.036,30.907,28.036c6.854,0,13.964-1.61,20.436-3.606l2.129-13.21c-6.245,2.87-12.84,4.609-19.695,4.609
	c-10.688,0-16.928-3.795-17.729-13.878h-0.012c-0.04-0.593-0.094-1.166-0.094-1.778c0-0.119,0.01-0.242,0.01-0.361
	c0-0.063,0-0.118,0-0.183h0.012c0.072-4.392,1.038-8.729,2.717-12.731c3.207-8.166,7.744-13.808,17.581-13.808
	c6.978,0,10.592,3.858,10.592,10.71c0,1.497-0.124,2.861-0.371,4.357h-22.842c-1.489,5.055-1.746,8.438-1.783,11.472h39.338
	C311.169,96.985,311.796,92.247,311.796,87.39"/>
<path fill="#454443" d="M368.327,71.561c0.499-2.49,0.993-5.113,1.371-7.099h15.574l-1.487,8.596h0.242
	c4.481-6.61,11.845-10.088,19.69-10.088c7.599,0,15.451,4.486,16.326,12.213h0.252c4.234-8.354,13.582-12.213,22.558-12.213
	c9.589,0,17.82,7.845,17.82,17.568c0,5.736-1.497,12.217-2.861,17.45l-6.738,30.655h-16.699l6.729-31.278
	c0.869-3.873,2.124-9.851,2.124-13.714c0-4.728-3.616-7.727-7.855-7.727c-11.59,0-14.463,13.463-16.57,22.188l-6.615,30.532h-16.699
	l6.729-31.278c0.879-3.873,2.127-9.851,2.127-13.714c0-4.728-3.614-7.727-7.853-7.727c-11.343,0-14.46,13.587-16.58,22.188
	l-6.6,30.532h-16.696L368.327,71.561z"/>
<path fill="#454443" d="M572.999,77.524c-1.789-0.973-6.408-2.342-11.141-2.342c-4.98,0-11.215,1.369-11.215,6.477
	c0,8.092,21.688,11.096,21.688,26.797c0,16.693-14.584,21.673-28.916,21.673c-6.734,0-13.463-0.992-19.569-3.854l3.616-13.334
	c4.732,2.613,9.466,4.98,15.953,4.98c5.602,0,11.467-1.873,11.467-7.1c0-10.346-21.68-11.344-21.68-27.419
	c0-15.078,14.574-20.438,27.785-20.438c6.106,0,12.336,1.122,15.632,1.966L572.999,77.524z"/>
<path fill="#454443" d="M583.67,64.462h12.09l2.855-13.216l17.953-5.854l-4.11,19.07h14.949l-2.618,12.208h-14.955l-6.101,28.047
	c-0.376,1.492-0.746,3.735-0.746,6.225c0,3.869,2.613,6.235,6.349,6.235c2.993,0,5.987-0.623,8.102-1.502l-2.86,12.969
	c-2.87,0.617-6.111,1.497-8.977,1.497c-11.343,0-19.312-4.491-19.312-16.827c0-4.985,0.992-9.847,2.109-14.955l4.732-21.688h-12.074
	L583.67,64.462z"/>
<path fill="#454443" d="M696.89,73.058c0.494-2.742,1.003-5.607,1.497-8.596h15.952l-2.247,12.089h0.246
	c2.999-6.986,11.221-13.582,18.947-13.582c2.119,0,4.367,0.114,6.363,0.613l-3.493,16.328c-1.872-0.618-4.244-0.988-6.358-0.988
	c-11.848,0-17.568,10.582-19.683,20.933l-5.997,28.788h-16.699L696.89,73.058z"/>
<path fill="#454443" d="M685.299,87.39c0-16.323-10.463-24.42-26.292-24.42c-21.062,0-36.515,19.189-36.515,39.124
	c0,19.069,12.465,28.036,30.907,28.036c6.847,0,13.951-1.61,20.434-3.606l2.119-13.21c-6.229,2.87-12.84,4.609-19.692,4.609
	c-10.682,0-16.926-3.795-17.727-13.878h-0.005c-0.029-0.593-0.094-1.166-0.094-1.778c0-0.119,0.01-0.242,0.015-0.361
	c0-0.063-0.005-0.118-0.005-0.183h0.01c0.074-4.392,1.032-8.729,2.718-12.731c3.201-8.166,7.746-13.808,17.583-13.808
	c6.971,0,10.602,3.858,10.602,10.71c0,1.497-0.133,2.861-0.38,4.357h-22.854c-1.478,5.055-1.749,8.438-1.769,11.472h39.325
	C684.677,96.985,685.299,92.247,685.299,87.39"/>
<path fill="#454443" d="M761.264,60.628c7.953,0,14.436,6.472,14.436,14.441c0,7.939-6.482,14.411-14.436,14.411
	c-7.949,0-14.437-6.472-14.437-14.411C746.827,67.1,753.314,60.628,761.264,60.628 M761.308,87.336
	c6.63,0,11.635-5.356,11.635-12.268c0-6.921-5.005-12.277-11.635-12.277c-6.704,0-11.724,5.355-11.724,12.277
	C749.584,81.98,754.604,87.336,761.308,87.336 M755.755,66.586h6.472c3.883,0,5.79,1.561,5.79,4.768
	c0,2.712-1.709,4.673-4.362,4.673l4.822,7.475h-2.939l-4.714-7.475h-2.312v7.475h-2.757V66.586z M758.512,73.863h3.266
	c2.114,0,3.492-0.439,3.492-2.643c0-1.912-1.719-2.475-3.492-2.475h-3.266V73.863z"/>
</svg>
